<?xml version="1.0" encoding="UTF-8"?>
<svg xmlns="http://www.w3.org/2000/svg" xmlns:xlink="http://www.w3.org/1999/xlink" viewBox="0 0 120 120" width="120px" height="120px">
<g id="surface99147089">
<path style=" stroke:none;fill-rule:nonzero;fill:rgb(100%,100%,100%);fill-opacity:1;" d="M 12 28 C 10.558594 27.980469 9.214844 28.738281 8.488281 29.984375 C 7.761719 31.230469 7.761719 32.769531 8.488281 34.015625 C 9.214844 35.261719 10.558594 36.019531 12 36 L 108 36 C 109.441406 36.019531 110.785156 35.261719 111.511719 34.015625 C 112.238281 32.769531 112.238281 31.230469 111.511719 29.984375 C 110.785156 28.738281 109.441406 27.980469 108 28 Z M 12 56 C 10.558594 55.980469 9.214844 56.738281 8.488281 57.984375 C 7.761719 59.230469 7.761719 60.769531 8.488281 62.015625 C 9.214844 63.261719 10.558594 64.019531 12 64 L 108 64 C 109.441406 64.019531 110.785156 63.261719 111.511719 62.015625 C 112.238281 60.769531 112.238281 59.230469 111.511719 57.984375 C 110.785156 56.738281 109.441406 55.980469 108 56 Z M 12 84 C 10.558594 83.980469 9.214844 84.738281 8.488281 85.984375 C 7.761719 87.230469 7.761719 88.769531 8.488281 90.015625 C 9.214844 91.261719 10.558594 92.019531 12 92 L 108 92 C 109.441406 92.019531 110.785156 91.261719 111.511719 90.015625 C 112.238281 88.769531 112.238281 87.230469 111.511719 85.984375 C 110.785156 84.738281 109.441406 83.980469 108 84 Z M 12 84 "/>
</g>
</svg>
