<?xml version="1.0" encoding="UTF-8"?>
<svg xmlns="http://www.w3.org/2000/svg" xmlns:xlink="http://www.w3.org/1999/xlink" viewBox="0 0 100 100" width="100px" height="100px">
<g id="surface86626232">
<path style=" stroke:none;fill-rule:nonzero;fill:rgb(18.039216%,80.000001%,44.313726%);fill-opacity:1;" d="M 50 4 C 24.617188 4 4 24.617188 4 50 C 4 58.15625 6.238281 65.773438 9.96875 72.417969 L 4.074219 93.460938 C 3.882812 94.144531 4.070312 94.882812 4.566406 95.390625 C 5.058594 95.902344 5.789062 96.113281 6.480469 95.941406 L 28.421875 90.503906 C 34.871094 93.945312 42.183594 96 50 96 C 75.382812 96 96 75.382812 96 50 C 96 24.617188 75.382812 4 50 4 Z M 50 8 C 73.21875 8 92 26.78125 92 50 C 92 73.21875 73.21875 92 50 92 C 42.554688 92 35.585938 90.058594 29.523438 86.667969 C 29.082031 86.421875 28.558594 86.351562 28.066406 86.472656 L 8.851562 91.234375 L 14.003906 72.851562 C 14.152344 72.328125 14.082031 71.761719 13.804688 71.292969 C 10.121094 65.046875 8 57.78125 8 50 C 8 26.78125 26.78125 8 50 8 Z M 33.285156 26 C 32.003906 26 30.171875 26.476562 28.667969 28.097656 C 27.765625 29.070312 24 32.738281 24 39.1875 C 24 45.910156 28.664062 51.710938 29.226562 52.457031 L 29.230469 52.457031 L 29.230469 52.460938 C 29.175781 52.390625 29.945312 53.503906 30.972656 54.839844 C 32 56.175781 33.433594 57.929688 35.238281 59.828125 C 38.84375 63.625 43.917969 68.015625 50.210938 70.699219 C 53.109375 71.933594 55.394531 72.679688 57.128906 73.222656 C 60.339844 74.230469 63.265625 74.078125 65.460938 73.753906 C 67.105469 73.511719 68.914062 72.722656 70.703125 71.589844 C 72.492188 70.457031 74.246094 69.050781 75.019531 66.910156 C 75.574219 65.375 75.855469 63.960938 75.957031 62.792969 C 76.007812 62.210938 76.015625 61.695312 75.976562 61.21875 C 75.9375 60.742188 75.980469 60.378906 75.535156 59.648438 C 74.605469 58.121094 73.550781 58.078125 72.449219 57.535156 C 71.835938 57.234375 70.097656 56.382812 68.351562 55.550781 C 66.609375 54.71875 65.097656 53.984375 64.167969 53.652344 C 63.582031 53.441406 62.863281 53.136719 61.828125 53.253906 C 60.792969 53.371094 59.769531 54.117188 59.175781 55 C 58.613281 55.835938 56.339844 58.515625 55.648438 59.304688 C 55.640625 59.300781 55.699219 59.328125 55.425781 59.191406 C 54.570312 58.769531 53.523438 58.40625 51.972656 57.589844 C 50.421875 56.773438 48.484375 55.566406 46.363281 53.695312 L 46.363281 53.691406 C 43.207031 50.910156 40.996094 47.421875 40.296875 46.25 C 40.34375 46.195312 40.292969 46.261719 40.390625 46.164062 L 40.394531 46.160156 C 41.109375 45.457031 41.738281 44.617188 42.273438 44.003906 C 43.03125 43.132812 43.363281 42.363281 43.726562 41.644531 C 44.449219 40.210938 44.046875 38.636719 43.628906 37.808594 L 43.628906 37.804688 C 43.65625 37.863281 43.402344 37.300781 43.128906 36.652344 C 42.855469 36.003906 42.503906 35.160156 42.128906 34.261719 C 41.378906 32.464844 40.542969 30.449219 40.046875 29.269531 L 40.046875 29.265625 C 39.460938 27.875 38.667969 26.875 37.632812 26.390625 C 36.597656 25.90625 35.679688 26.042969 35.644531 26.042969 L 35.640625 26.042969 C 34.902344 26.007812 34.089844 26 33.285156 26 Z M 33.285156 30 C 34.054688 30 34.816406 30.007812 35.453125 30.039062 C 36.109375 30.070312 36.066406 30.074219 35.941406 30.015625 C 35.8125 29.957031 35.988281 29.9375 36.359375 30.820312 C 36.847656 31.976562 37.6875 34 38.4375 35.800781 C 38.8125 36.703125 39.164062 37.546875 39.445312 38.210938 C 39.726562 38.875 39.878906 39.246094 40.054688 39.597656 L 40.054688 39.601562 L 40.058594 39.605469 C 40.230469 39.945312 40.214844 39.726562 40.15625 39.847656 C 39.734375 40.683594 39.675781 40.890625 39.25 41.382812 C 38.601562 42.132812 37.9375 42.96875 37.585938 43.3125 C 37.277344 43.613281 36.726562 44.085938 36.378906 45.003906 C 36.03125 45.925781 36.195312 47.1875 36.75 48.132812 C 37.488281 49.390625 39.929688 53.359375 43.71875 56.695312 C 46.105469 58.800781 48.328125 60.191406 50.105469 61.128906 C 51.882812 62.066406 53.328125 62.613281 53.652344 62.773438 C 54.421875 63.152344 55.261719 63.449219 56.238281 63.332031 C 57.214844 63.214844 58.058594 62.621094 58.59375 62.015625 L 58.597656 62.011719 C 59.3125 61.203125 61.433594 58.78125 62.449219 57.289062 C 62.492188 57.304688 62.476562 57.292969 62.816406 57.414062 L 62.816406 57.417969 L 62.820312 57.417969 C 62.976562 57.472656 64.910156 58.339844 66.632812 59.160156 C 68.355469 59.980469 70.105469 60.835938 70.675781 61.117188 C 71.496094 61.523438 71.882812 61.789062 71.984375 61.789062 C 71.992188 61.964844 71.996094 62.15625 71.972656 62.445312 C 71.902344 63.25 71.6875 64.359375 71.257812 65.550781 C 71.046875 66.132812 69.949219 67.335938 68.566406 68.210938 C 67.183594 69.085938 65.5 69.703125 64.875 69.796875 C 63 70.074219 60.773438 70.175781 58.328125 69.40625 C 56.632812 68.875 54.519531 68.183594 51.78125 67.019531 C 46.230469 64.652344 41.511719 60.621094 38.140625 57.074219 C 36.457031 55.300781 35.105469 53.648438 34.144531 52.398438 C 33.1875 51.152344 32.765625 50.503906 32.417969 50.042969 L 32.414062 50.039062 C 31.792969 49.21875 28 43.941406 28 39.1875 C 28 34.15625 30.335938 32.183594 31.601562 30.820312 C 32.265625 30.105469 32.992188 30 33.285156 30 Z M 33.285156 30 "/>
</g>
</svg>
